<?xml version="1.0" standalone="no"?>
<!DOCTYPE svg PUBLIC "-//W3C//DTD SVG 20010904//EN"
 "http://www.w3.org/TR/2001/REC-SVG-20010904/DTD/svg10.dtd">
<svg version="1.0" xmlns="http://www.w3.org/2000/svg"
 width="700.000000pt" height="700.000000pt" viewBox="0 0 700.000000 700.000000"
 preserveAspectRatio="xMidYMid meet">
<metadata>
Created by potrace 1.14, written by Peter Selinger 2001-2017
</metadata>
<g transform="translate(0.000000,700.000000) scale(0.100000,-0.100000)"
fill="#000000" stroke="none">
<path d="M2950 6803 c-171 -29 -309 -101 -373 -196 l-26 -38 -153 -1 c-156 0
-253 -14 -368 -53 -228 -75 -361 -220 -347 -378 9 -107 56 -157 182 -197 136
-43 341 -203 392 -307 15 -29 15 -36 -3 -85 l-19 -53 -87 -5 -88 -5 20 -30
c11 -16 20 -35 20 -41 0 -20 -222 -181 -345 -250 -86 -48 -204 -104 -218 -104
-7 0 -17 -4 -22 -9 -14 -12 -67 -30 -165 -55 l-85 -22 0 -187 c0 -103 -2 -187
-4 -187 -5 0 -165 81 -256 130 -38 20 -124 65 -190 100 -66 34 -160 84 -210
110 -49 26 -153 80 -230 119 l-140 72 66 -63 c263 -254 578 -492 849 -643 58
-32 107 -59 109 -61 2 -2 4 -32 5 -66 l1 -63 160 -1 c93 -1 172 -6 188 -13 36
-14 37 -14 31 2 -7 20 339 15 388 -7 47 -20 55 -20 60 2 5 16 39 17 549 16
394 -1 552 -4 573 -13 49 -20 174 -51 234 -59 68 -8 267 -7 337 3 54 7 182 36
255 58 35 10 151 13 515 12 436 -1 470 -2 469 -18 -2 -21 12 -21 67 -1 58 21
392 27 384 7 -2 -7 -3 -13 -2 -13 1 0 22 6 47 13 28 8 98 13 185 12 l140 -1 5
64 c5 59 8 66 35 81 220 119 492 302 669 451 75 63 205 180 265 238 l66 64
-145 -75 c-211 -109 -335 -174 -425 -222 -44 -23 -143 -75 -220 -115 -77 -40
-164 -86 -192 -101 l-53 -28 0 192 0 193 -62 13 c-143 29 -368 131 -545 247
-69 44 -194 135 -226 164 -5 4 1 26 12 49 l21 41 -85 0 c-84 0 -85 0 -90 28
-31 145 -154 324 -283 408 -32 21 -59 39 -61 40 -2 2 11 15 29 30 17 15 44 46
58 68 23 35 27 52 27 116 0 64 -4 82 -27 122 -53 88 -174 174 -336 236 -78 30
-269 77 -352 86 -184 20 -360 27 -360 16 0 -4 10 -15 23 -24 20 -15 6 -15
-203 -11 -270 7 -291 9 -321 41 -19 21 -23 36 -23 94 l-1 70 -35 -1 c-19 -1
-46 -4 -60 -6z"/>
<path d="M1459 3737 c-4 -63 -1 -619 4 -623 3 -3 89 -6 191 -7 171 -2 187 -4
205 -22 43 -43 44 -167 3 -208 -21 -21 -32 -22 -212 -25 -170 -3 -190 -5 -191
-20 -1 -21 -1 -129 0 -159 1 -21 2 -22 194 -18 215 3 237 6 289 40 74 49 111
147 111 295 0 128 -25 208 -83 267 -40 40 -71 47 -232 47 -71 1 -129 3 -129 6
-1 3 -2 58 -3 123 l-2 117 207 0 207 0 0 99 -1 99 -278 0 c-203 0 -279 -3
-280 -11z"/>
<path d="M2486 3726 c-14 -21 -151 -261 -198 -346 -14 -25 -39 -69 -57 -98
-17 -29 -31 -55 -31 -57 0 -3 -15 -28 -33 -57 -19 -29 -37 -62 -42 -73 -13
-31 -14 -243 -1 -248 6 -2 102 -3 214 -3 195 1 202 0 203 -19 1 -11 2 -54 3
-95 l1 -75 73 -2 72 -2 0 97 0 98 45 -2 45 -2 0 100 0 100 -27 -2 c-69 -5 -63
-38 -63 355 l0 355 -95 -1 c-87 -1 -97 -3 -109 -23z m58 -466 c1 -140 -3 -220
-9 -221 -35 -2 -248 0 -250 3 -4 5 250 446 254 442 3 -3 5 -103 5 -224z"/>
<path d="M3061 3730 c-151 -51 -222 -238 -215 -565 3 -133 5 -160 21 -230 4
-16 7 -32 8 -35 12 -57 50 -132 87 -172 57 -62 91 -71 274 -74 l162 -2 -1 99
0 99 -116 1 c-137 1 -158 4 -191 27 -54 39 -80 136 -84 311 -3 137 11 232 41
283 38 65 60 73 213 76 l138 3 -1 100 -1 99 -141 -1 c-107 -1 -155 -5 -194
-19z"/>
<path d="M3710 3743 c0 -2 -25 -102 -56 -221 -31 -119 -57 -221 -58 -227 -1
-5 -5 -19 -9 -30 -3 -11 -8 -31 -11 -45 -5 -26 -133 -522 -142 -552 -5 -16 4
-17 80 -16 l85 1 16 53 c8 30 23 84 32 121 10 38 19 70 20 72 5 7 242 8 252 1
7 -4 18 -43 60 -206 l11 -41 85 -1 85 0 -6 27 c-5 22 -44 173 -59 234 -3 9 -7
25 -9 35 -10 43 -81 317 -106 413 -16 58 -31 117 -34 130 -5 27 -54 215 -62
241 -5 15 -18 18 -90 17 -46 0 -84 -3 -84 -6z m107 -340 c8 -32 16 -65 18 -73
2 -8 15 -61 29 -117 14 -56 26 -103 26 -106 0 -7 -180 -2 -182 6 -2 12 85 357
90 353 2 -2 10 -30 19 -63z"/>
<path d="M4234 3201 l0 -550 73 1 73 1 0 207 0 207 88 -2 c48 -1 99 -7 113
-13 29 -12 62 -52 74 -92 10 -29 10 -29 20 -130 12 -114 13 -123 14 -152 l1
-26 83 1 c49 1 81 6 80 12 -1 6 -4 53 -7 105 -13 199 -32 270 -84 319 l-37 34
40 41 c55 56 79 136 79 264 1 154 -40 249 -127 294 -39 20 -60 22 -263 25
l-220 4 0 -550z m400 338 c32 -15 49 -57 51 -125 1 -55 -21 -124 -45 -139 -6
-4 -68 -8 -136 -9 l-124 -2 0 143 0 143 115 0 c63 0 125 -5 139 -11z"/>
<path d="M4964 3203 l1 -548 205 1 c222 0 249 6 304 61 108 108 150 464 91
757 -26 126 -101 231 -183 257 -20 6 -123 13 -228 15 l-191 4 1 -547z m364
330 c36 -15 74 -83 89 -158 10 -48 10 -308 1 -348 -35 -148 -65 -173 -211
-176 l-97 -2 0 351 0 351 93 -2 c51 -1 107 -8 125 -16z"/>
<path d="M4970 2348 l0 -54 -1445 0 -1445 0 0 48 c0 26 -3 48 -6 48 -4 0 -32
-21 -62 -47 -51 -44 -61 -48 -112 -50 -30 0 -61 -2 -67 -2 -10 -1 -9 -11 4
-42 l16 -42 -40 -36 c-21 -20 -70 -63 -108 -96 -37 -33 -73 -64 -79 -70 -7 -5
-22 -19 -34 -29 l-23 -20 5 30 c3 16 8 43 12 59 19 101 53 309 51 312 -8 7
-184 -147 -267 -234 -171 -180 -404 -503 -558 -773 -11 -19 -45 -80 -77 -135
-107 -187 -257 -478 -329 -637 -91 -202 -156 -350 -156 -355 0 -3 17 16 37 43
20 27 42 54 48 59 6 6 56 66 111 135 54 68 106 134 116 145 137 168 222 272
308 380 57 72 107 132 110 135 3 3 41 50 85 105 43 55 82 102 85 105 3 3 40
49 83 103 44 53 80 97 82 97 2 0 2 -18 0 -39 -2 -22 -6 -82 -10 -133 l-6 -93
68 71 c37 40 122 129 188 200 227 242 264 279 268 274 3 -3 8 -36 12 -73 3
-37 8 -78 11 -90 2 -12 5 -36 6 -54 1 -32 2 -31 92 63 50 52 96 94 102 94 6 0
18 -15 27 -32 125 -246 306 -517 506 -758 87 -105 360 -387 456 -470 72 -63
144 -121 223 -181 42 -32 82 -62 87 -67 29 -24 166 -112 175 -112 16 0 82 44
210 138 313 231 605 517 828 811 40 53 78 103 85 111 23 29 185 275 218 333
19 33 55 98 81 145 27 49 53 86 60 84 17 -5 69 -55 133 -130 64 -74 57 -86 81
126 3 34 9 62 13 62 3 0 33 -29 66 -64 115 -123 321 -340 388 -410 l68 -71 -6
80 c-3 44 -8 105 -11 135 -5 54 -5 55 14 35 10 -11 142 -173 293 -360 150
-187 334 -415 409 -506 74 -91 147 -181 162 -200 14 -19 36 -45 48 -59 12 -14
34 -40 48 -59 56 -71 95 -115 90 -101 -30 77 -161 359 -253 545 -314 636 -622
1105 -909 1390 -108 106 -226 204 -226 185 0 -9 22 -133 64 -362 5 -31 3 -33
-16 -15 -7 6 -34 30 -59 52 -25 22 -82 73 -126 113 l-82 73 14 40 14 39 -27 1
c-15 1 -43 2 -63 3 -29 1 -50 12 -98 54 l-61 53 0 -53z"/>
</g>
</svg>
