<?xml version="1.0" encoding="UTF-8" standalone="no"?>
<svg
   data-noselect=""
   viewBox="0 0 128 128"
   width="128"
   height="128"
   preserveAspectRatio="none"
   version="1.1"
   class="svg-canvas"
   id="svg136"
   sodipodi:docname="54card.top.ico.svg"
   inkscape:version="1.1.2 (76b9e6a115, 2022-02-25)"
   xmlns:inkscape="http://www.inkscape.org/namespaces/inkscape"
   xmlns:sodipodi="http://sodipodi.sourceforge.net/DTD/sodipodi-0.dtd"
   xmlns="http://www.w3.org/2000/svg"
   xmlns:svg="http://www.w3.org/2000/svg">
  <sodipodi:namedview
     id="namedview138"
     pagecolor="#ffffff"
     bordercolor="#666666"
     borderopacity="1.0"
     inkscape:pageshadow="2"
     inkscape:pageopacity="0.0"
     inkscape:pagecheckerboard="true"
     showgrid="false"
     inkscape:zoom="2"
     inkscape:cx="8.25"
     inkscape:cy="81.25"
     inkscape:window-width="1848"
     inkscape:window-height="1009"
     inkscape:window-x="72"
     inkscape:window-y="34"
     inkscape:window-maximized="1"
     inkscape:current-layer="svg136" />
  <defs
     id="defs2" />
  <g
     id="g25"
     transform="matrix(0.61639559,0,0,0.7843767,2.4411912,20.638992)">
    <path
       d="m 50.067,83.406 h 100.854 c -4.827,10.99 -18.301,34.258 -50.38,50.591 l -0.047,-0.187 -0.047,0.187 C 68.368,117.664 54.894,94.396 50.067,83.406 Z"
       fill="#000000"
       stroke-width="0"
       id="path9" />
    <g
       id="g23">
      <g
         id="g15">
        <path
           d="m 165.23,99.437 0.715,6.663 -15.311,-12.768 -0.989,6.061 -0.803,-0.763 C 141.583,91.74 124.178,85.419 124.003,85.355 l 0.331,-1.121 19.712,4.593 v -6.806 l 0.913,0.614 c 3.21,2.158 11.392,7.837 14.515,10.006 l -2.167,-9.631 1.174,0.706 c 17.214,10.359 34.814,41.204 34.99,41.514 l 2.01,3.549 z"
           fill="#f98e04"
           stroke-width="0"
           id="path11" />
        <path
           d="m 144.631,83.121 c 4.027,2.709 15.744,10.862 15.744,10.862 l -2.197,-9.764 c 17.282,10.398 34.783,41.3 34.783,41.3 l -28.485,-27.631 0.732,6.835 -14.987,-12.497 -0.976,5.98 C 141.812,91.152 124.201,84.805 124.201,84.805 l 20.43,4.76 v -6.444 m -1.172,-2.2 v 2.2 4.968 l -18.993,-4.425 -0.663,2.243 c 0.174,0.063 17.467,6.346 24.634,13.148 l 1.606,1.524 0.357,-2.185 0.646,-3.955 13.411,11.183 2.224,1.854 -0.308,-2.879 -0.387,-3.613 26.159,25.375 5.855,5.68 -4.02,-7.098 c -0.721,-1.273 -17.852,-31.29 -35.198,-41.726 l -2.349,-1.413 0.602,2.674 1.536,6.826 c -3.672,-2.549 -10.435,-7.236 -13.286,-9.154 z"
           fill="#000000"
           stroke-width="0"
           id="path13" />
      </g>
      <g
         id="g21">
        <path
           d="M 7.699,125.231 C 7.875,124.921 25.476,94.076 42.69,83.717 l 1.174,-0.706 -2.167,9.631 c 3.124,-2.171 11.305,-7.848 14.515,-10.006 l 0.913,-0.614 v 6.807 l 20.591,-4.765 0.327,1.124 C 77.86,85.252 59.586,91.744 52.33,98.631 L 51.527,99.394 50.538,93.333 35.225,106.1 35.939,99.437 5.689,128.78 Z"
           fill="#f98e04"
           stroke-width="0"
           id="path17" />
        <path
           d="m 56.539,83.121 v 6.444 l 21.309,-4.931 c 0,0 -18.49,6.517 -25.922,13.571 l -0.976,-5.98 -14.987,12.497 0.732,-6.835 -28.486,27.632 c 0,0 17.501,-30.902 34.783,-41.3 l -2.197,9.764 c 0,0 11.716,-8.153 15.744,-10.862 m -13.547,1.098 h 0.006 m 34.85,0.415 h 0.006 m -20.143,-3.713 -1.826,1.228 c -2.851,1.918 -9.614,6.605 -13.286,9.154 l 1.536,-6.826 0.602,-2.674 -2.349,1.413 C 25.042,93.652 7.911,123.669 7.19,124.942 l -4.02,7.098 5.855,-5.68 26.159,-25.375 -0.387,3.613 -0.308,2.879 2.224,-1.854 13.411,-11.183 0.646,3.955 0.357,2.185 1.606,-1.524 C 59.901,92.253 78.056,85.804 78.238,85.74 l -0.386,-1.326 0.002,-0.95 h -0.006 v 0.938 l -0.264,-0.908 -19.873,4.598 v -4.97 z m -14.713,2.127 h 0.006 z"
           fill="#000000"
           stroke-width="0"
           id="path19" />
      </g>
    </g>
  </g>
  <g
     id="g87"
     transform="matrix(0.62206181,0,0,0.33629683,2.8835211,-5.8512403)">
    <path
       d="m 167.351,127.579 v 40.169 H 32.488 v -40.169 c 10.75,-3.819 20.25,-16.69 24.752,-23.597 L 55.967,99.48 h 87.905 l -1.273,4.502 c 4.479,6.907 13.98,19.778 24.752,23.597 z"
       fill="#000000"
       stroke-width="0"
       id="path33" />
    <g
       id="g47">
      <g
         id="g39">
        <path
           d="m 143.721,162.086 -19.83,4.619 -0.333,-1.128 c 0.176,-0.064 17.688,-6.425 24.988,-13.353 l 0.808,-0.767 0.995,6.096 15.403,-12.843 -0.719,6.703 30.432,-29.52 -2.023,3.571 c -0.177,0.312 -17.882,31.343 -35.2,41.763 l -1.181,0.711 2.18,-9.689 c -3.142,2.184 -11.373,7.895 -14.602,10.067 l -0.918,0.618 z"
           fill="#f98e04"
           stroke-width="0"
           id="path35" />
        <path
           d="m 192.93,125.172 c 0,0 -17.606,31.087 -34.992,41.548 l 2.21,-9.822 c 0,0 -11.787,8.202 -15.838,10.927 v -6.483 l -20.553,4.788 c 0,0 17.717,-6.384 25.194,-13.481 l 0.982,6.016 15.077,-12.572 -0.737,6.876 28.657,-27.797 m -27.919,20.922 h 0.006 M 198,118.613 l -5.89,5.714 -26.316,25.527 0.389,-3.634 0.31,-2.896 -2.237,1.865 -13.492,11.25 -0.65,-3.979 -0.359,-2.198 -1.616,1.533 c -7.21,6.843 -24.607,13.164 -24.782,13.227 l 0.667,2.257 19.107,-4.451 v 4.998 2.213 l 1.837,-1.235 c 2.868,-1.929 9.672,-6.644 13.366,-9.209 l -1.545,6.867 -0.605,2.69 2.363,-1.422 c 17.45,-10.5 34.684,-40.697 35.41,-41.977 z m -5.07,7.738 h 0.006 z m -27.913,18.564 h 0.006 z"
           fill="#000000"
           stroke-width="0"
           id="path37" />
      </g>
      <g
         id="g45">
        <path
           d="m 55.36,168.315 c -3.229,-2.172 -11.459,-7.884 -14.602,-10.067 l 2.18,9.689 -1.181,-0.711 C 24.439,156.806 6.733,125.775 6.556,125.463 l -2.022,-3.571 30.432,29.52 -0.718,-6.703 15.403,12.843 0.995,-6.096 0.808,0.767 c 7.303,6.93 24.812,13.289 24.988,13.353 l -0.333,1.128 -19.83,-4.619 v 6.847 z"
           fill="#f98e04"
           stroke-width="0"
           id="path41" />
        <path
           d="m 7.07,125.172 28.656,27.797 -0.737,-6.876 15.077,12.572 0.982,-6.016 c 7.477,7.097 25.194,13.481 25.194,13.481 l -20.553,-4.788 v 6.483 C 51.637,165.099 39.851,156.898 39.851,156.898 l 2.21,9.822 C 24.676,156.26 7.07,125.172 7.07,125.172 M 2,118.613 l 4.044,7.141 c 0.725,1.28 17.96,31.477 35.41,41.977 l 2.363,1.422 -0.605,-2.69 -1.545,-6.867 c 3.694,2.564 10.498,7.28 13.366,9.209 l 1.837,1.235 v -2.213 -4.998 l 19.107,4.451 0.667,-2.257 C 76.469,164.96 59.072,158.639 51.862,151.796 l -1.616,-1.533 -0.359,2.198 -0.65,3.979 -13.492,-11.25 -2.237,-1.865 0.31,2.896 0.389,3.634 L 7.89,124.326 Z"
           fill="#000000"
           stroke-width="0"
           id="path43" />
      </g>
    </g>
    <g
       id="g85">
      <path
         d="M 138.905,105.601 C 139.72,83.703 127.165,73.544 127.165,73.544 130.903,69.519 135.646,56.581 125.44,46.087 115.234,35.593 99.996,36.815 99.996,36.815 l 1.893,2.444 c 0,0 -10.302,-0.294 -13.968,-0.503 -3.157,-0.18 -3.185,-3.225 -3.264,-4.366 -0.156,-2.228 0.174,-6.702 0.174,-6.702 -12.436,1.652 -14.448,13.584 -14.448,13.584 0,0 -7.906,-2.372 -17.322,4.169 -9.416,6.541 -8.218,19.766 -8.218,19.766 0.527,3.594 1.066,6.573 3.115,8.29 1.856,1.556 3.058,1.796 4.793,3.488 5.365,5.233 7.581,11 8.782,13.912 0.485,1.175 0.673,2.445 0.464,3.707 -0.204,1.23 -0.53,3.349 -0.961,4.495 -0.402,1.071 -0.266,2.611 1.131,2.782 0.547,0.067 1.116,-0.11 1.645,-0.229 0.83,-0.186 1.722,-0.436 2.578,-0.273 3.738,0.709 3.236,7.755 2.751,10.32 -7.192,38.082 18.3,61.179 32.388,60.604 29.733,-1.214 36.818,-51.706 37.376,-66.702 z"
         fill="#020804"
         stroke-width="0"
         id="path49" />
      <path
         d="M 138.538,97.813 C 136.151,79.614 128.315,73.545 128.315,73.545 132.053,69.52 135.646,56.582 125.44,46.088 115.234,35.594 99.996,36.816 99.996,36.816 l 1.869,2.444 c 0,0 -9.32,-0.359 -12.986,-0.575 -3.666,-0.216 -3.935,-3.181 -4.025,-4.942 -0.098,-1.92 -0.024,-6.056 -0.024,-6.056 -12.435,1.653 -14.447,13.585 -14.447,13.585 0,0 -8.937,-3.067 -17.921,4.289 -8.871,7.262 -7.619,19.646 -7.619,19.646 0.425,3.416 1.03,6.589 3.115,8.314 0,0 -2.827,-13.249 4.983,-23.456 7.811,-10.206 20.892,-4.624 20.892,-4.624 -0.431,-11.141 7.978,-13.153 7.978,-13.153 0.072,2.564 -0.024,5.127 1.342,7.451 1.465,2.493 6.756,2.372 12.243,2.372 5.259,0 13.082,1.246 13.082,1.246 l -1.581,-3.163 c 14.807,3.45 20.341,11.285 20.7,19.191 0.469,10.317 -5.319,14.735 -5.319,14.735 7.883,4.73 9.5,11.229 11.433,16.895 0.316,0.927 0.756,1.805 1.322,2.605 1.04,1.469 2.193,2.944 3.505,4.193 z"
         fill="#f98e04"
         stroke-width="0"
         id="path51" />
      <path
         d="m 113.7,71.292 c 0,0 9.679,-0.479 9.009,-10.734 -0.671,-10.254 -6.421,-13.129 -10.063,-14.663 0,0 5.175,4.6 2.396,11.309 0,0 -1.438,-9.009 -8.529,-10.734 -7.092,-1.725 -15.429,0.096 -19.742,-0.767 -4.313,-0.863 -7.379,-3.642 -7.379,-8.338 0,0 -5.846,11.309 6.038,14.759 0,0 -2.046,1.531 -12.171,-2.588 -9.895,-4.025 -16.771,2.492 -19.167,5.846 -2.396,3.354 -2.875,11.596 -2.492,14.663 0,0 1.629,-10.734 16.388,-12.267 0,0 -11.674,2.782 -11.548,13.752 0.096,8.338 5.708,14.88 6.756,16.963 1.044,2.074 2.252,6.307 -1.054,10.494 0,0 6.085,-1.198 5.606,-12.123 -0.479,-10.925 -0.861,-20.96 4.672,-26.079 5.127,-4.744 19.862,-7.703 25.181,5.331 0,0 3.738,-1.246 2.683,-7.283 -1.054,-6.038 -8.338,-6.517 -8.338,-6.517 0,0 13.498,-3.619 16.484,2.588 2.444,5.079 -0.096,8.913 -1.917,9.871 0,0 3.929,-0.863 5.463,-4.121 0,0 0.863,3.738 -2.3,5.558 0,0 8.338,-0.288 9.009,-8.434 -0.001,0.001 4.503,6.901 -4.985,13.514 z"
         fill="#f98e04"
         stroke-width="0"
         id="path53" />
      <polygon
         points="71.485,113.166 76.828,97.263 127.377,97.263 131.376,113.166 "
         fill="#5a5a5c"
         stroke-width="0"
         id="polygon55" />
      <path
         d="m 101.481,88.926 c 0,0 -9.652,16.114 -29.996,24.176 l 0.471,12.446 c 0,0 6.813,3.759 6.53,13.127 -0.233,7.835 -2.129,9.726 -2.129,9.726 0,0 10.754,13.576 23.137,20.934 0.869,0.522 1.919,1.351 4.048,0.074 2.129,-1.278 16.75,-9.579 22.995,-20.366 0,0 -2.345,-4.974 -2.345,-12.491 0,-7.529 6.319,-9.652 6.319,-9.652 l 0.864,-13.751 c 0.001,-0.001 -21.729,-10.381 -29.894,-24.223 z"
         fill="#5a5a5c"
         stroke-width="0"
         id="path57" />
      <path
         d="m 122.419,125.008 c -3.807,2.444 -20.269,10.137 -20.269,10.137 0,0 -18.901,-8.05 -21.632,-11 -2.731,-2.95 -4.169,-5.537 -4.456,-8.05 0,0 17.176,7.4 26.307,7.4 8.7,0 25.37,-7.475 25.37,-7.475 0,0 -1.507,6.544 -5.32,8.988 z"
         fill="#010103"
         stroke-width="0"
         id="path59" />
      <path
         d="m 124.434,119.761 c -0.509,0.951 -1.137,1.848 -1.908,2.629 -0.386,0.389 -0.811,0.749 -1.292,1.041 -0.476,0.277 -0.949,0.518 -1.425,0.777 l -5.82,2.82 -11.64,5.642 -0.119,0.058 -0.121,-0.053 c -4.017,-1.763 -8.019,-3.555 -11.991,-5.42 -1.984,-0.938 -3.963,-1.883 -5.908,-2.923 -0.475,-0.286 -0.946,-0.566 -1.404,-0.9 -0.473,-0.319 -0.864,-0.709 -1.264,-1.09 -0.789,-0.772 -1.525,-1.589 -2.223,-2.436 1.586,1.515 3.158,3.069 5.166,3.92 1.92,1.03 3.899,1.973 5.877,2.909 3.964,1.862 7.965,3.653 11.976,5.414 l -0.239,0.004 11.631,-5.637 5.815,-2.819 c 0.49,-0.218 1,-0.424 1.476,-0.65 0.462,-0.229 0.895,-0.535 1.298,-0.878 0.802,-0.696 1.507,-1.519 2.115,-2.408 z"
         fill="#ffffff"
         stroke-width="0"
         id="path61" />
      <path
         d="m 72.62,134.913 c 0,0 -1.23,3.076 -0.047,6.104 1.183,3.028 4.385,4.898 2.886,1.751 -0.946,-1.988 -3.17,-3.691 -2.839,-7.855 z"
         fill="#9898a0"
         stroke-width="0"
         id="path63" />
      <path
         d="m 76.264,141.585 c 0,0 -2.366,-1.845 -2.224,-6.151 0.142,-4.306 2.082,-2.318 2.129,0.237 0.047,2.554 -0.71,3.501 0.095,5.914 z"
         fill="#9898a0"
         stroke-width="0"
         id="path65" />
      <path
         d="m 77.021,126.491 c 0,0 5.749,2.65 6.08,9.274 0.331,6.624 -1.207,12.775 -1.207,12.775 4.916,6.023 11.661,11.3 19.731,15.543 0,0 8.304,-3.691 22.144,-14.762 0,0 -8.801,12.42 -22.286,17.767 0,0 -14.053,-7.831 -22.427,-18.5 -10e-4,-0.001 5.441,-14.243 -2.035,-22.097 z"
         fill="#010103"
         stroke-width="0"
         id="path67" />
      <path
         d="m 101.814,159.565 v -21.67 c 0,0 -18.311,-9.179 -21.41,-14.195 l 21.363,10.859 c 0,0 18.737,-8.682 20.251,-10.196 1.514,-1.514 3.17,-3.217 3.927,-5.489 0,0 3.123,4.873 -14.289,13.296 0,0 3.442,-0.177 6.506,1.68 2.582,1.565 6.08,9.392 6.506,14.124 -0.001,-0.002 -12.728,9.509 -22.854,11.591 z"
         fill="#9898a0"
         stroke-width="0"
         id="path69" />
      <path
         d="m 130.636,134.913 c 0,0 1.23,3.076 0.047,6.104 -1.183,3.028 -4.385,4.898 -2.886,1.751 0.946,-1.988 3.17,-3.691 2.839,-7.855 z"
         fill="#9898a0"
         stroke-width="0"
         id="path71" />
      <path
         d="m 126.993,141.585 c 0,0 2.366,-1.845 2.224,-6.151 -0.142,-4.306 -2.082,-2.318 -2.129,0.237 -0.048,2.554 0.709,3.501 -0.095,5.914 z"
         fill="#9898a0"
         stroke-width="0"
         id="path73" />
      <g
         id="g79">
        <path
           d="m 102.406,105.524 c -0.333,0.102 -0.655,0.164 -0.988,0.175 -0.333,-0.011 -0.661,-0.073 -0.994,-0.175 -1.118,-0.333 -2.281,-1.118 -3.783,-2.281 -2.389,-1.841 -4.094,-4.63 -9.441,-4.28 -4.348,0.277 -9.402,7.279 -12.084,11.215 -2.682,3.936 -3.665,2.976 -3.665,2.976 1.152,-2.31 2.925,-14.721 3.535,-18.634 0.604,-3.857 -1.067,-13.451 -1.067,-13.451 l 4.179,-4.156 c 0,0 -0.113,1.835 -0.418,5.218 -0.311,3.377 1.429,5.873 2.835,6.076 1.508,0.215 2.694,-0.299 3.625,-2.513 1.191,-2.812 -0.424,-5.122 -0.424,-5.122 l 3.072,-3.806 3.128,3.857 c 0,0 -0.226,0.186 -0.649,0.819 -0.943,1.406 -0.587,5.523 0.124,7.318 1.124,2.818 4.755,3.111 6.454,1.937 3.365,-2.315 2.88,-8.306 2.366,-10.96 -0.48,-2.513 -1.643,-4.122 -1.643,-4.122 l 4.851,-4.992 z"
           fill="#f98e04"
           stroke-width="0"
           id="path75" />
        <path
           d="m 100.424,105.524 0.994,-34.903 4.851,4.992 c 0,0 -1.163,1.609 -1.649,4.122 -0.508,2.654 -0.994,8.645 2.372,10.96 1.7,1.175 5.331,0.881 6.449,-1.937 0.717,-1.796 1.067,-5.912 0.124,-7.318 -0.418,-0.632 -0.649,-0.819 -0.649,-0.819 l 3.134,-3.857 3.072,3.806 c 0,0 -1.615,2.31 -0.429,5.122 0.937,2.214 2.123,2.727 3.631,2.513 1.406,-0.203 3.14,-2.699 2.835,-6.076 -0.311,-3.382 -0.418,-5.218 -0.418,-5.218 l 4.179,4.156 c 0,0 -1.671,9.594 -1.073,13.451 0.616,3.913 2.389,16.325 3.541,18.634 0,0 -0.983,0.96 -3.665,-2.976 -2.682,-3.936 -7.736,-10.938 -12.084,-11.215 -5.353,-0.35 -7.058,2.439 -9.441,4.28 -1.513,1.169 -2.671,1.954 -3.789,2.281 -0.333,0.102 -0.655,0.164 -0.988,0.175 z"
           fill="#f98e04"
           stroke-width="0"
           id="path77" />
      </g>
      <path
         d="m 71.301,81.985 c 0,0 -2.882,-9.783 6.653,-17.881 -1.254,2.696 -2.091,5.272 -1.965,7.571 0,0 4.48,-1.372 8.697,-1.803 0,0 -5.345,2.393 -8.601,5.487 -2.875,2.731 -4.784,6.626 -4.784,6.626 z"
         fill="#f98e04"
         stroke-width="0"
         id="path81" />
      <path
         d="m 97.648,66.033 c 0,0 -3.702,-10.219 -14.878,-9.524 -16.172,1.006 -15.494,15.1 -15.741,19.982 -0.359,7.116 -0.216,17.017 -4.888,22.515 0,0 5.463,-1.402 7.571,-9.458 1.586,-6.061 3.059,-19.582 7.631,-24.306 4.313,-4.456 10.434,-2.815 10.434,-2.815 0,0 -5.978,1.366 -7.379,6.325 0,0 7.595,-3.378 12.626,-1.438 0,0 -0.503,-3.306 -4.816,-2.875 0,0.001 3.618,-1.377 9.44,1.594 z"
         fill="#ae470c"
         stroke-width="0"
         id="path83" />
    </g>
  </g>
  <g
     id="shape_FskBi5YxWl"
     transform="matrix(0.27836088,0,0,0.44726616,6.8820911,-36.167853)"
     filter="">
    <g
       id="g110">
      <svg
         version="1.1"
         width="546"
         height="470.10599"
         viewBox="0 0 546 470.106"
         id="svg108">
        <g
           data-width="277.38"
           transform="translate(67.31)"
           id="g106">
          <path
             d="m 3.82,-44.69 h 36.72 v 7.97 H 13.27 v 10.19 h 14.2 q 4.15,0 6.6,0.53 2.45,0.54 4.19,1.88 v 0 q 4.69,3.55 4.69,10.38 v 0 q 0,8.65 -7.24,12 v 0 Q 31.89,0 23.38,0 V 0 H 3.82 v -7.91 h 19.56 q 4.02,0 6.17,-0.67 v 0 q 1.34,-0.46 2.11,-1.7 0.77,-1.24 0.77,-2.92 v 0 q 0,-1.88 -0.87,-3.25 -0.87,-1.37 -2.28,-1.77 v 0 q -1.14,-0.34 -5.9,-0.41 v 0 H 3.82 Z"
             transform="translate(0,258.553)"
             fill="#f98e04"
             stroke="#f98e04"
             stroke-width="0.112"
             data-glyph-w="45.292"
             data-glyph-h="67"
             data-glyph-ascender="57.553"
             data-glyph-descender="-9.447"
             id="path94" />
          <path
             d="M 29.82,-7.77 H 1.61 v -9.45 L 26.8,-44.69 h 12.53 v 29.01 h 5.9 v 7.91 h -5.9 V 0 h -9.51 z m 0,-27 -17.56,19.09 h 17.56 z"
             transform="translate(45.292,258.553)"
             fill="#f98e04"
             stroke="#f98e04"
             stroke-width="0.112"
             data-glyph-w="47.302"
             data-glyph-h="67"
             data-glyph-ascender="57.553"
             data-glyph-descender="-9.447"
             id="path96" />
          <path
             d="M 24.86,-7.97 H 38.53 V 0 H 22.91 q -4.42,0 -6.76,-0.47 v 0 Q 7.91,-2.08 4.42,-9.65 v 0 Q 2.14,-14.74 2.14,-22.24 v 0 q 0,-8.98 3.49,-14.61 v 0 q 2.54,-4.09 6.8,-5.96 4.25,-1.88 10.95,-1.88 v 0 h 15.15 v 7.97 H 24.46 q -6.37,0 -9.32,3.42 v 0 q -2.48,2.81 -2.48,10.18 v 0 q 0,9.92 3.82,13 v 0 q 2.68,2.15 8.38,2.15 z"
             transform="translate(92.594,258.553)"
             fill="#f98e04"
             stroke="#f98e04"
             stroke-width="0.112"
             data-glyph-w="40.602"
             data-glyph-h="67"
             data-glyph-ascender="57.553"
             data-glyph-descender="-9.447"
             id="path98" />
          <path
             d="M 11.32,0 H 0.2 L 18.69,-44.69 H 29.61 L 48.11,0 H 36.98 L 32.63,-10.32 H 15.68 Z m 19.23,-18.29 -6.36,-15.61 -6.37,15.61 z"
             transform="translate(133.196,258.553)"
             fill="#f98e04"
             stroke="#f98e04"
             stroke-width="0.112"
             data-glyph-w="48.374"
             data-glyph-h="67"
             data-glyph-ascender="57.553"
             data-glyph-descender="-9.447"
             id="path100" />
          <path
             d="M 21.71,-16.95 H 14.07 V 0 H 4.56 V -44.69 H 26.4 q 9.38,0 13.06,2.41 v 0 q 2.55,1.61 3.92,4.26 1.38,2.64 1.38,5.79 v 0 q 0,6.37 -3.22,9.85 v 0 q -2.01,2.08 -5.29,3.15 v 0 q 2.61,0.94 3.95,1.98 1.34,1.04 2.41,3.05 v 0 q 0.81,1.6 1.17,3.08 0.37,1.47 0.57,4.35 v 0 Q 44.76,-1.94 45.43,0 V 0 H 34.77 q -0.47,-1.54 -1,-6.37 v 0 q -0.34,-3.88 -1.38,-5.96 -1.03,-2.08 -3.11,-3.28 v 0 q -2.61,-1.41 -7.57,-1.34 z m -7.64,-19.77 v 11.8 H 27.4 q 3.35,0 4.76,-1.01 v 0 q 2.14,-1.47 2.14,-5.16 v 0 q 0,-4.09 -3.21,-5.22 v 0 q -1.14,-0.41 -3.69,-0.41 v 0 z"
             transform="translate(181.57,258.553)"
             fill="#f98e04"
             stroke="#f98e04"
             stroke-width="0.112"
             data-glyph-w="47.838"
             data-glyph-h="67"
             data-glyph-ascender="57.553"
             data-glyph-descender="-9.447"
             id="path102" />
          <path
             d="m 4.56,0 v -44.69 h 18.96 q 7.1,0 10.99,1.41 v 0 q 7.16,2.61 9.58,9.58 v 0 q 1.81,5.36 1.81,11.46 v 0 q 0,6.03 -1.75,11.39 v 0 q -1.74,5.49 -5.76,8.1 v 0 Q 35.84,-1.14 32.8,-0.57 29.75,0 23.52,0 v 0 z m 18.96,-36.72 h -9.45 v 28.75 h 9.45 q 6.23,0 8.64,-2.75 v 0 q 1.47,-1.74 2.38,-4.89 0.9,-3.15 0.9,-6.7 v 0 q 0,-3.95 -1.07,-7.24 -1.07,-3.28 -2.81,-4.89 v 0 q -2.55,-2.28 -8.04,-2.28 z"
             transform="translate(229.408,258.553)"
             fill="#f98e04"
             stroke="#f98e04"
             stroke-width="0.112"
             data-glyph-w="47.972"
             data-glyph-h="67"
             data-glyph-ascender="57.553"
             data-glyph-descender="-9.447"
             id="path104" />
        </g>
      </svg>
    </g>
  </g>
  <g
     id="shape_lOFzpefsWq"
     transform="matrix(0.90054941,0,0,0.8056513,26.83862,40.83544)"
     filter="">
    <g
       id="g123">
      <svg
         version="1.1"
         width="124"
         height="151.64"
         viewBox="0 0 124 151.64"
         id="svg121">
        <g
           data-width="39.627"
           transform="translate(21.1865)"
           id="g119">
          <path
             d="m 0.21,-12.94 v -1.76 h 11.03 v 1.76 H 6.72 V 0 H 4.73 v -12.94 z"
             transform="translate(0,82.32)"
             fill="#f98e04"
             stroke="#f98e04"
             stroke-width="0.035"
             data-glyph-w="11.445"
             data-glyph-h="24.822"
             data-glyph-ascender="19.32"
             data-glyph-descender="-5.502"
             id="path113" />
          <path
             d="m 1.05,-7.37 v 0 q 0,-1.62 0.47,-3 0.48,-1.39 1.37,-2.41 0.89,-1.02 2.17,-1.59 1.28,-0.58 2.92,-0.58 v 0 q 1.62,0 2.91,0.6 1.29,0.59 2.18,1.62 0.9,1.03 1.38,2.41 0.48,1.37 0.48,2.95 v 0 q 0,1.57 -0.47,2.96 -0.47,1.39 -1.38,2.43 -0.9,1.03 -2.18,1.63 -1.28,0.6 -2.92,0.6 v 0 Q 6.34,0.25 5.06,-0.35 3.78,-0.95 2.89,-1.98 2,-3.02 1.52,-4.41 1.05,-5.8 1.05,-7.37 Z m 2.04,0 v 0 q 0,1.13 0.32,2.2 0.33,1.07 0.96,1.89 0.63,0.82 1.54,1.32 0.92,0.49 2.07,0.49 v 0 q 1.22,0 2.13,-0.45 0.92,-0.45 1.53,-1.24 0.62,-0.79 0.94,-1.87 0.31,-1.08 0.31,-2.34 v 0 q 0,-1.14 -0.33,-2.18 -0.34,-1.06 -0.97,-1.87 -0.63,-0.82 -1.54,-1.32 -0.92,-0.49 -2.07,-0.49 v 0 q -1.15,0 -2.07,0.45 -0.91,0.45 -1.54,1.24 -0.63,0.79 -0.96,1.86 -0.32,1.07 -0.32,2.31 z"
             transform="translate(11.445,82.32)"
             fill="#f98e04"
             stroke="#f98e04"
             stroke-width="0.035"
             data-glyph-w="15.981"
             data-glyph-h="24.822"
             data-glyph-ascender="19.32"
             data-glyph-descender="-5.502"
             id="path115" />
          <path
             d="m 1.89,0 v -14.66 q 0.88,-0.1 1.9,-0.16 1.02,-0.05 2.15,-0.05 v 0 q 1.37,0 2.44,0.34 1.07,0.33 1.81,0.92 0.73,0.59 1.11,1.42 0.38,0.83 0.38,1.79 v 0 q 0,1.18 -0.46,2.09 -0.45,0.92 -1.26,1.55 -0.8,0.63 -1.94,0.95 -1.13,0.33 -2.5,0.33 v 0 q -0.88,0 -1.63,-0.06 v 0 V 0 Z m 3.89,-7.14 v 0 q 1.89,0 2.9,-0.83 1.02,-0.83 1.02,-2.26 v 0 q 0,-1.36 -0.97,-2.16 -0.98,-0.8 -2.83,-0.8 v 0 q -0.57,0 -1.07,0.02 -0.5,0.02 -0.94,0.07 v 0 5.85 q 0.33,0.05 0.8,0.08 0.48,0.03 1.09,0.03 z"
             transform="translate(27.426,82.32)"
             fill="#f98e04"
             stroke="#f98e04"
             stroke-width="0.035"
             data-glyph-w="12.201"
             data-glyph-h="24.822"
             data-glyph-ascender="19.32"
             data-glyph-descender="-5.502"
             id="path117" />
        </g>
      </svg>
    </g>
  </g>
  <defs
     id="defs132">
    <pattern
       id="wm_tile"
       x="0"
       y="0"
       width="20%"
       height="27%"
       patternunits="objectBoundingBox">
      <g
         id="wm_lm"
         transform="translate(-188.000000, -323.000000)"
         fill="#cccccc">
        <text
           font-size="15"
           transform="translate(270.490979, 373.245789) rotate(-390.000000) translate(-270.490979, -373.245789)"
           id="text128"><tspan
             x="187.490979"
             opacity=".3"
             y="378.245789"
             id="tspan126">copyright © copyright © </tspan></text>
      </g>
    </pattern>
  </defs>
</svg>
